<?xml version="1.0" encoding="utf-8"?>
<!-- Generator: Adobe Illustrator 19.2.0, SVG Export Plug-In . SVG Version: 6.00 Build 0)  -->
<!DOCTYPE svg PUBLIC "-//W3C//DTD SVG 1.1//EN" "http://www.w3.org/Graphics/SVG/1.1/DTD/svg11.dtd">
<svg version="1.1" id="Layer_1" xmlns="http://www.w3.org/2000/svg" xmlns:xlink="http://www.w3.org/1999/xlink" x="0px" y="0px"
	 viewBox="0 0 115 115" enable-background="new 0 0 115 115" xml:space="preserve">
<g>
	<g>
		<g>
			<path fill="#FFFFFF" d="M67.422,86.306c-0.443,0-0.802-0.359-0.802-0.802V66.478c0-0.175-0.143-0.318-0.318-0.318H48.849
				c-0.175,0-0.318,0.143-0.318,0.318v19.026c0,0.443-0.359,0.802-0.802,0.802c-0.443,0-0.802-0.359-0.802-0.802V66.478
				c0-1.06,0.862-1.922,1.922-1.922h17.453c1.06,0,1.922,0.862,1.922,1.922v19.026C68.224,85.947,67.865,86.306,67.422,86.306z"/>
			<path fill="#FFFFFF" d="M78.71,86.306H36.441c-1.059,0-1.921-0.862-1.921-1.922V55.287c0-0.443,0.359-0.802,0.802-0.802
				c0.443,0,0.802,0.359,0.802,0.802v29.097c0,0.172,0.145,0.318,0.316,0.318H78.71c0.172,0,0.317-0.146,0.317-0.318V55.287
				c0-0.443,0.359-0.802,0.802-0.802c0.443,0,0.802,0.359,0.802,0.802v29.097C80.631,85.443,79.77,86.306,78.71,86.306z"/>
			<path fill="#FFFFFF" d="M79.864,56.089c-1.69,0-3.316-0.672-4.509-1.832c-1.191,1.174-2.779,1.832-4.48,1.832
				s-3.289-0.658-4.48-1.832c-1.191,1.161-2.805,1.832-4.478,1.832c-1.631,0-3.176-0.618-4.357-1.72
				c-1.181,1.102-2.729,1.72-4.364,1.72c-1.689,0-3.315-0.673-4.508-1.835c-1.195,1.162-2.832,1.835-4.539,1.835
				c-1.715,0-3.404-0.691-4.607-1.846c-1.216,1.142-2.978,1.846-4.727,1.846c-3.028,0-5.786-3.05-5.786-6.398v-1.066
				c0-0.096,0.017-0.19,0.05-0.28l6.55-17.608c0.117-0.314,0.416-0.522,0.751-0.522l42.597-0.041h0.001
				c0.337,0,0.637,0.21,0.753,0.526l6.467,17.65c0.032,0.089,0.049,0.182,0.049,0.276v1.066
				C86.247,53.236,82.755,56.089,79.864,56.089z M75.352,52.242L75.352,52.242c0.252,0,0.489,0.119,0.641,0.32
				c0.906,1.204,2.353,1.923,3.871,1.923c2.107,0,4.779-2.257,4.779-4.793v-0.924l-6.225-16.989l-41.479,0.04L30.633,48.77v0.922
				c0,2.7,2.248,4.793,4.181,4.793c1.58,0,3.224-0.773,4.091-1.923c0.151-0.201,0.389-0.32,0.641-0.32l0,0
				c0.252,0,0.489,0.119,0.641,0.32c0.892,1.186,2.411,1.923,3.962,1.923c1.536,0,2.993-0.719,3.898-1.923
				c0.151-0.201,0.389-0.32,0.641-0.32h0.001c0.252,0,0.489,0.118,0.641,0.32c0.907,1.204,2.353,1.923,3.868,1.923
				c1.455,0,2.818-0.654,3.741-1.794c0.303-0.376,0.942-0.377,1.247,0c0.923,1.14,2.284,1.794,3.733,1.794
				c1.519,0,2.918-0.701,3.839-1.923c0.152-0.201,0.389-0.319,0.641-0.319l0,0c0.252,0,0.489,0.118,0.641,0.32
				c0.921,1.222,2.319,1.923,3.837,1.923s2.917-0.701,3.837-1.923C74.863,52.361,75.1,52.242,75.352,52.242z"/>
			<path fill="#FFFFFF" d="M75.566,53.846c-0.391,0-0.733-0.286-0.792-0.684l-1.599-10.765c-0.065-0.438,0.237-0.846,0.675-0.911
				c0.44-0.064,0.847,0.237,0.911,0.676l1.599,10.765c0.065,0.438-0.237,0.846-0.675,0.911
				C75.645,53.843,75.605,53.846,75.566,53.846z"/>
			<path fill="#FFFFFF" d="M66.4,53.846c-0.422,0-0.775-0.329-0.8-0.756l-0.617-10.657c-0.026-0.442,0.312-0.822,0.754-0.847
				c0.449-0.025,0.821,0.313,0.847,0.754l0.617,10.657c0.026,0.442-0.312,0.822-0.754,0.847
				C66.431,53.846,66.415,53.846,66.4,53.846z"/>
			<path fill="#FFFFFF" d="M39.564,53.898c-0.045,0-0.09-0.004-0.136-0.011c-0.437-0.075-0.73-0.489-0.655-0.926l1.843-10.765
				c0.075-0.437,0.488-0.729,0.926-0.655c0.437,0.075,0.73,0.489,0.655,0.926l-1.843,10.765
				C40.287,53.622,39.948,53.898,39.564,53.898z"/>
			<path fill="#FFFFFF" d="M48.752,53.846c-0.022,0-0.044-0.001-0.066-0.003c-0.441-0.036-0.77-0.423-0.735-0.864l0.862-10.657
				c0.036-0.442,0.431-0.771,0.864-0.735c0.441,0.036,0.77,0.423,0.735,0.864L49.55,53.109
				C49.516,53.528,49.165,53.846,48.752,53.846z"/>
			<path fill="#FFFFFF" d="M57.568,53.989c-0.442,0-0.801-0.358-0.802-0.8l-0.027-10.907c-0.001-0.443,0.357-0.803,0.8-0.804h0.002
				c0.442,0,0.801,0.358,0.802,0.8l0.027,10.907c0.001,0.443-0.357,0.803-0.8,0.804H57.568z"/>
		</g>
		<path fill="#FFFFFF" d="M57.637,115.517c-31.582,0-57.277-25.695-57.277-57.277c0-31.584,25.695-57.278,57.277-57.278
			s57.277,25.695,57.277,57.278C114.914,89.822,89.219,115.517,57.637,115.517z M57.637,5.825c-28.9,0-52.413,23.513-52.413,52.415
			c0,28.9,23.513,52.413,52.413,52.413s52.413-23.513,52.413-52.413C110.051,29.338,86.538,5.825,57.637,5.825z"/>
	</g>
	<circle opacity="0.22" fill="#FFFFFF" cx="57.76" cy="58.14" r="54.379"/>
	<rect id="_x3C_Slice_x3E__2_" x="-1" y="-1" fill="none" width="116" height="116"/>
</g>
</svg>
